<?xml version="1.0" standalone="no"?>
<!DOCTYPE svg PUBLIC "-//W3C//DTD SVG 20010904//EN"
 "http://www.w3.org/TR/2001/REC-SVG-20010904/DTD/svg10.dtd">
<svg version="1.0" xmlns="http://www.w3.org/2000/svg"
 width="347.000000pt" height="317.000000pt" viewBox="0 0 347.000000 317.000000"
 preserveAspectRatio="xMidYMid meet">

<g transform="translate(0.000000,317.000000) scale(0.100000,-0.100000)"
fill="#000000" stroke="none">
<path d="M1526 2584 c-22 -21 -20 -47 4 -69 17 -15 20 -31 20 -103 l0 -85 -24
22 c-14 13 -22 30 -19 40 10 38 -56 68 -85 39 -21 -21 -15 -68 11 -77 12 -5
28 -6 35 -3 7 2 29 -10 48 -29 26 -25 34 -41 34 -68 0 -29 9 -44 47 -83 l47
-48 -62 -63 c-58 -59 -62 -65 -62 -110 0 -26 -4 -47 -8 -47 -4 0 -34 26 -65
58 l-58 58 21 19 c12 11 33 19 48 20 18 0 31 9 41 27 14 24 14 28 -3 47 -35
39 -86 21 -86 -29 0 -30 -33 -66 -49 -55 -7 4 -11 71 -11 191 0 180 1 186 22
204 19 15 21 22 13 46 -11 32 -55 45 -81 23 -19 -15 -18 -68 1 -75 12 -5 15
-29 15 -132 l0 -126 -55 54 c-40 39 -55 62 -55 81 0 31 -23 59 -49 59 -22 0
-51 -30 -51 -53 0 -22 28 -47 53 -47 14 0 47 -25 90 -68 63 -63 67 -70 67
-112 0 -44 3 -48 100 -145 l100 -100 0 -72 c0 -40 -4 -73 -8 -73 -4 0 -34 27
-67 60 -41 42 -59 67 -57 81 7 43 -56 77 -86 47 -15 -15 -15 -61 0 -76 7 -7
24 -12 38 -12 19 0 46 -21 103 -78 l77 -77 0 -259 c0 -202 3 -257 13 -254 9 4
13 100 15 429 l2 424 52 52 c29 29 57 53 63 53 6 0 34 -24 63 -53 l52 -53 0
-427 c0 -373 2 -427 15 -427 13 0 15 35 15 258 l0 257 78 78 c58 58 84 77 104
77 52 0 64 83 14 96 -38 9 -66 -11 -66 -50 0 -27 -10 -43 -59 -89 -33 -32 -62
-57 -65 -57 -3 0 -6 33 -6 73 l0 73 100 100 100 100 0 51 c0 51 1 52 68 112
37 33 76 61 87 61 43 1 64 40 40 76 -30 46 -91 21 -87 -35 2 -22 -9 -37 -53
-75 l-55 -47 0 116 c0 90 3 120 15 131 18 18 20 55 3 72 -7 7 -24 12 -38 12
-50 0 -68 -51 -30 -85 19 -17 20 -31 20 -195 0 -147 -3 -180 -15 -190 -23 -19
-53 11 -47 49 5 35 -25 56 -64 47 -52 -13 -34 -96 21 -96 12 0 29 -8 38 -18
16 -17 13 -22 -43 -77 l-60 -59 0 49 c0 47 -3 52 -62 112 l-62 63 47 48 c35
36 47 55 47 78 0 22 11 40 38 67 21 21 41 34 45 31 12 -13 57 26 57 49 0 30
-18 47 -51 47 -33 0 -53 -23 -47 -55 4 -17 -2 -31 -18 -46 l-24 -22 0 92 c0
69 4 96 15 107 18 18 20 55 3 72 -18 18 -53 15 -71 -6 -22 -25 -21 -45 3 -67
18 -16 20 -31 20 -154 l0 -137 -43 -42 -43 -42 -42 43 c-23 23 -42 52 -42 63
0 26 52 76 72 69 8 -3 25 3 38 13 28 22 22 65 -11 82 -30 17 -69 -11 -69 -49
0 -16 -7 -34 -15 -41 -13 -11 -15 0 -15 89 0 59 4 101 10 101 16 0 23 46 10
69 -13 25 -52 28 -74 5z"/>
<path d="M1192 2104 c-25 -17 -29 -56 -7 -74 23 -19 19 -80 -7 -107 l-22 -23
-47 46 c-26 26 -45 52 -42 60 10 26 -16 54 -51 54 -34 0 -46 -13 -46 -49 0
-24 35 -55 54 -48 10 4 71 -50 185 -166 l171 -172 0 -64 0 -64 -21 19 c-105
93 -189 183 -183 197 3 8 0 25 -6 37 -17 32 -71 24 -84 -12 -8 -22 -6 -32 9
-48 11 -13 27 -19 38 -16 13 3 49 -26 132 -109 l114 -114 3 -127 c2 -91 7
-129 16 -132 9 -3 12 45 12 220 l0 223 -115 115 c-63 63 -115 120 -115 126 0
6 11 21 25 34 19 18 25 34 25 64 0 30 5 45 20 54 27 16 26 57 -2 76 -12 9 -25
16 -28 16 -3 0 -16 -7 -28 -16z"/>
<path d="M2077 2102 c-21 -23 -22 -56 -2 -72 9 -7 15 -29 15 -53 0 -32 7 -48
30 -72 l29 -30 -114 -122 -115 -121 0 -221 c0 -141 4 -221 10 -221 6 0 10 49
10 127 l0 128 116 116 c65 65 123 115 130 112 7 -2 21 0 33 6 45 25 33 91 -17
91 -35 0 -52 -16 -52 -50 0 -19 -25 -50 -98 -123 -53 -53 -101 -97 -105 -97
-4 0 -7 25 -7 56 l0 56 171 179 c142 148 175 178 193 173 28 -7 59 26 54 57
-2 13 -14 29 -28 36 -33 16 -64 -3 -68 -44 -2 -20 -18 -45 -47 -73 l-45 -44
-25 24 c-31 29 -34 81 -5 110 11 11 20 27 20 35 0 19 -35 55 -53 55 -8 0 -21
-8 -30 -18z"/>
<path d="M1622 1998 c-18 -18 -14 -53 8 -73 18 -17 20 -31 20 -175 0 -144 -2
-158 -20 -175 -11 -10 -20 -28 -20 -40 0 -12 9 -30 20 -40 19 -17 20 -31 20
-212 0 -151 3 -194 13 -191 9 4 13 55 15 200 2 158 5 198 17 208 19 16 19 41
0 66 -11 15 -14 55 -15 187 0 103 4 167 10 167 16 0 23 46 10 69 -12 24 -58
29 -78 9z"/>
<path d="M757 623 c-14 -14 -6 -38 21 -59 22 -19 25 -25 14 -36 -11 -11 -14
-10 -22 2 -5 8 -12 11 -16 7 -12 -11 12 -29 32 -25 28 5 31 54 5 63 -12 3 -21
15 -21 26 0 22 11 24 28 7 9 -9 12 -8 12 5 0 17 -39 25 -53 10z"/>
<path d="M917 623 c-4 -3 -7 -16 -6 -27 0 -20 1 -20 8 -2 7 18 8 18 14 -5 4
-13 7 -27 7 -31 0 -13 -28 -9 -33 5 -3 7 -6 5 -6 -5 -1 -13 7 -18 24 -18 16 0
25 -6 25 -15 0 -8 4 -15 9 -15 5 0 2 27 -6 60 -15 58 -22 68 -36 53z"/>
<path d="M1050 570 c0 -33 3 -60 8 -60 4 0 6 21 5 48 l-3 47 15 -30 c8 -16 14
-38 15 -47 0 -10 7 -18 15 -18 12 0 15 13 15 60 0 33 -3 60 -8 60 -4 0 -6 -19
-5 -42 l3 -43 -15 30 c-8 17 -14 36 -15 43 0 6 -7 12 -15 12 -12 0 -15 -13
-15 -60z"/>
<path d="M1225 570 c0 -33 4 -60 10 -60 6 0 10 27 10 60 0 33 -4 60 -10 60 -6
0 -10 -27 -10 -60z"/>
<path d="M1355 570 c0 -33 3 -60 8 -60 4 0 7 27 7 60 0 33 -3 60 -7 60 -5 0
-8 -27 -8 -60z"/>
<path d="M1480 615 c0 -8 4 -15 9 -15 5 0 11 -11 13 -25 4 -17 1 -25 -8 -25
-8 0 -14 10 -15 23 -1 21 -1 21 -9 -3 -4 -14 -8 -34 -8 -45 0 -16 1 -17 5 -2
5 21 43 23 43 2 0 -8 5 -15 10 -15 13 0 13 7 -2 69 -7 30 -17 51 -25 51 -7 0
-13 -7 -13 -15z"/>
<path d="M1616 614 c-11 -29 -6 -81 8 -94 22 -18 61 -9 61 14 0 11 -5 21 -12
23 -7 3 -9 -3 -6 -16 4 -16 1 -21 -16 -21 -19 0 -21 6 -21 50 0 43 3 50 19 50
11 0 22 -6 24 -12 3 -8 6 -6 6 5 1 23 -54 24 -63 1z"/>
<path d="M1774 617 c-3 -8 -4 -34 -2 -58 3 -41 5 -44 33 -44 30 0 30 1 30 55
0 53 -1 55 -28 58 -17 2 -29 -2 -33 -11z m51 -47 c0 -35 -4 -45 -17 -48 -15
-3 -18 4 -18 48 0 44 3 51 18 48 13 -3 17 -13 17 -48z"/>
<path d="M2020 623 c1 -28 28 -107 38 -111 14 -4 16 24 3 32 -5 4 -12 24 -16
46 -4 22 -11 40 -16 40 -5 0 -9 -3 -9 -7z"/>
<path d="M2080 610 c0 -11 2 -20 4 -20 2 0 6 9 9 20 3 11 1 20 -4 20 -5 0 -9
-9 -9 -20z"/>
<path d="M2180 570 l0 -60 30 0 c17 0 30 4 30 9 0 5 -9 7 -20 4 -18 -5 -20 0
-20 51 0 31 -4 56 -10 56 -6 0 -10 -27 -10 -60z"/>
<path d="M2225 620 c3 -5 8 -10 11 -10 2 0 4 5 4 10 0 6 -5 10 -11 10 -5 0 -7
-4 -4 -10z"/>
<path d="M2328 570 c-2 -39 1 -60 8 -60 7 0 9 10 6 25 -2 15 0 25 7 25 6 0 16
-11 21 -25 5 -14 14 -25 20 -25 7 0 8 5 3 13 -4 6 -8 32 -8 56 0 30 -5 46 -15
49 -12 4 -13 3 -2 -10 15 -19 6 -48 -15 -48 -11 0 -14 8 -11 30 3 17 1 30 -3
30 -4 0 -9 -27 -11 -60z"/>
<path d="M2494 605 c-4 -14 -4 -29 0 -32 3 -4 6 5 6 18 0 19 2 21 10 9 18 -27
12 -53 -10 -47 -12 3 -20 0 -20 -8 0 -8 9 -11 25 -7 18 3 25 0 25 -12 0 -9 5
-16 11 -16 6 0 8 8 5 18 -3 9 -10 36 -16 60 -12 48 -27 54 -36 17z"/>
<path d="M2071 564 c0 -11 3 -14 6 -6 3 7 2 16 -1 19 -3 4 -6 -2 -5 -13z"/>
</g>
</svg>
